<svg width="612" height="314" viewBox="0 0 612 314" fill="none" xmlns="http://www.w3.org/2000/svg">
<g clip-path="url(#clip0_110_34)">
<path d="M537.931 -8.03327C537.397 -7.70362 536.997 -6.60482 536.997 -5.61589C536.864 -0.891032 535.397 -0.561391 510.064 -0.0119883L485.664 0.537414V74.7068V148.876H548.997H612.331L612.731 133.053C612.864 123.604 612.597 116.791 611.797 116.132C610.997 115.472 595.531 115.033 571.131 115.143L531.797 115.253L530.997 111.736C530.597 109.759 530.331 104.704 530.597 100.529L530.997 92.837L565.264 92.5074C595.531 92.2876 599.531 92.0679 599.931 90.5295C600.197 89.5406 600.197 81.849 599.931 73.4981L599.531 58.2247L569.931 58.1148C535.664 57.895 533.397 57.895 532.064 56.7962C531.397 56.137 531.131 44.16 531.664 34.8201C531.664 34.3806 549.264 34.051 570.864 34.1608C592.464 34.1608 610.731 33.9411 611.397 33.6114C612.331 33.1719 612.731 26.689 612.464 16.6898L612.197 0.537414L576.331 -0.121869C556.464 -0.45151 540.197 -0.891032 540.064 -1.00091C539.797 -1.00091 539.664 -1.6602 539.664 -2.31948C539.664 -2.86888 540.197 -3.08864 540.997 -2.759C541.664 -2.42936 545.131 -3.19852 548.597 -4.51709L554.997 -6.93446L549.664 -7.8135C542.864 -8.91231 538.997 -9.02219 537.931 -8.03327Z" fill="#E11138"/>
<path d="M0.332813 2.40537C-0.0671875 3.83382 -0.200521 37.3474 -0.0671875 76.9044L0.332813 148.876H63.6661H126.999L127.399 133.053C127.533 123.494 127.266 116.791 126.466 116.132C125.533 115.363 110.199 114.923 86.0662 114.923L46.9995 114.813L46.5995 103.605L46.1995 92.2876L80.5995 92.0679L114.999 91.7382L115.399 74.9265L115.799 58.2247H110.733C107.933 58.1148 93.7995 58.2247 79.3995 58.2247C64.9995 58.2247 51.6661 58.0049 49.7995 57.5654C46.3328 56.9061 46.3328 56.7962 46.3328 45.4785V34.051H86.9995H127.799L127.399 17.2392L126.999 0.537404L64.0661 0.207763L0.999479 -0.0119984L0.332813 2.40537Z" fill="#E11138"/>
<path d="M141.669 1.3066C141.269 2.07577 141.135 35.5893 141.269 75.8056L141.669 148.876L206.602 149.206L271.535 149.426L271.935 133.383C272.202 124.593 272.069 116.901 271.535 116.352C271.135 115.802 251.935 115.253 228.869 115.143L187.002 114.813L186.335 57.6753L185.669 0.53744L163.935 0.207798C147.402 -0.0119625 142.069 0.207798 141.669 1.3066Z" fill="#E11138"/>
<path d="M281.267 74.3771L281.667 148.876L304.067 149.206C321.4 149.426 326.333 149.206 326.333 148.107C326.733 127.12 326.067 1.63624 325.533 0.976959C325.133 0.427556 315 -0.0119656 302.867 -0.0119656H281L281.267 74.3771Z" fill="#E11138"/>
<path d="M336.597 0.757221C336.064 1.08686 335.664 9.21802 335.664 18.6677C335.664 32.4028 336.064 36.2486 337.531 37.2375C338.997 38.2265 345.264 38.4462 359.531 38.1166C370.464 37.8968 380.064 38.0067 380.864 38.4462C381.797 38.8858 382.464 57.016 382.597 94.0458L382.997 148.876L405.264 149.206L427.664 149.426L427.931 93.7161L428.331 38.0067L450.597 38.2265C472.864 38.5561 472.997 38.4462 473.664 36.0289C474.064 34.6004 474.197 26.0297 474.064 17.0195L473.664 0.53746L405.531 0.207819C368.064 0.0979382 336.997 0.317699 336.597 0.757221Z" fill="#E11138"/>
<path d="M527.003 171.402C503.536 174.368 487.67 182.609 479.536 196.125C469.003 213.925 475.136 233.814 494.736 245.681C503.803 251.175 521.536 256.229 539.003 258.207C553.67 259.855 563.536 262.273 568.736 265.459C572.203 267.767 573.003 268.975 573.003 272.492C573.003 275.678 572.203 277.217 569.536 278.975C564.736 282.051 552.736 283.809 540.336 283.15C522.87 282.271 514.47 277.436 512.47 266.998C511.803 263.262 511.136 262.602 507.27 262.053C505.003 261.723 496.736 261.504 489.003 261.723L475.003 262.053L475.136 269.964C475.536 286.117 488.203 300.731 509.27 309.192C521.136 314.026 535.003 315.455 555.803 314.136C584.736 312.268 601.936 303.478 609.536 286.556C613.27 278.645 612.203 263.921 607.27 255.79C597.936 240.187 580.736 232.166 547.003 227.441C523.136 224.144 513.003 220.079 513.003 213.596C513.003 201.619 553.403 197.663 567.803 208.102C572.203 211.288 574.336 214.475 574.336 217.881C574.336 219.419 575.27 220.958 576.47 221.287C577.67 221.617 586.07 221.947 595.136 221.947C607.936 221.947 611.936 221.617 612.47 220.408C613.67 217.991 609.27 204.256 605.003 197.004C600.07 188.873 589.803 180.741 578.736 176.346C565.536 171.182 544.736 169.204 527.003 171.402Z" fill="#E11138"/>
<path d="M68.202 173.599C37.802 178.874 11.002 200.63 3.00203 226.342C-0.197966 236.561 0.735368 256.12 4.8687 265.899C17.5354 295.896 54.0687 316.114 91.6687 313.917C105.669 313.038 121.535 308.972 131.802 303.478C144.335 296.775 144.335 296.885 130.202 285.018C123.402 279.304 117.135 274.689 116.069 274.689C115.135 274.689 111.002 276.118 106.735 277.876C96.4687 282.161 86.4687 283.15 75.5354 280.843C50.4687 275.459 35.9354 257.548 39.802 236.89C44.8687 210.519 83.1354 196.015 110.735 209.86C113.135 211.069 115.402 212.057 115.935 212.057C116.469 212.057 122.735 207.333 129.802 201.509C144.869 189.422 144.869 189.752 131.535 183.049C117.135 175.797 106.602 173.27 89.002 172.94C80.602 172.72 71.2687 173.05 68.202 173.599Z" fill="#E11138"/>
<path d="M375.397 177.006C352.463 179.093 337.13 188.103 327.397 205.025C323.263 212.167 322.997 213.376 322.997 224.694C322.997 236.011 323.263 237.22 327.263 244.143C332.33 253.153 340.73 260.734 350.063 265.13C356.863 268.206 356.997 268.426 355.13 270.734C353.93 271.942 350.33 276.777 346.997 281.282C335.53 296.775 322.997 311.499 320.863 311.829C318.463 312.159 312.997 305.016 300.063 284.579C292.197 272.272 259.797 222.496 246.863 202.718C243.263 197.224 238.197 189.422 235.663 185.137C233.13 180.961 230.463 177.555 229.663 177.555C228.197 177.665 219.797 189.642 202.73 215.903C196.73 224.913 184.197 244.252 174.73 258.757C165.13 273.261 154.73 289.303 151.397 294.468C148.063 299.632 143.93 305.895 142.197 308.423C140.197 311.389 139.53 313.367 140.33 313.917C141.13 314.466 152.063 314.576 164.73 314.246L187.93 313.697L193.397 304.906L198.997 296.116H228.997H258.997L264.597 304.906L270.063 313.697L293.93 314.576C324.063 315.675 321.797 315.675 347.663 314.576L369.663 313.697L386.597 292.49L403.663 271.393H411.663H419.663V292.82C419.663 309.192 420.063 314.246 421.397 314.246C422.197 314.246 431.663 314.356 442.33 314.466L461.663 314.576L462.063 245.901L462.33 177.115L458.863 176.456C454.33 175.467 386.863 175.907 375.397 177.006ZM419.663 224.144V239.528L400.73 239.418C367.93 239.308 362.463 237.44 361.263 226.012C360.463 218.321 363.13 214.145 370.597 211.068C375.797 208.981 378.597 208.761 398.063 208.761H419.663V224.144ZM234.997 257.218C237.93 262.163 240.597 266.558 240.73 267.108C240.997 267.657 236.063 268.096 229.797 268.096C222.73 268.096 218.33 267.657 218.33 266.998C218.33 265.459 228.063 248.428 228.997 248.318C229.397 248.318 232.063 252.384 234.997 257.218Z" fill="#E11138"/>
</g>
<defs>
<clipPath id="clip0_110_34">
<rect width="612" height="314" fill="white"/>
</clipPath>
</defs>
</svg>
